<svg width="64" height="64" viewBox="0 0 64 64" fill="none" xmlns="http://www.w3.org/2000/svg">
<path d="M53.8176 0H10.1824C7.48182 0 4.8919 1.07278 2.98234 2.98234C1.07278 4.8919 0 7.48182 0 10.1824L0 53.8176C0 56.5182 1.07278 59.1081 2.98234 61.0177C4.8919 62.9272 7.48182 64 10.1824 64H53.8176C56.5182 64 59.1081 62.9272 61.0177 61.0177C62.9272 59.1081 64 56.5182 64 53.8176V10.1824C64 7.48182 62.9272 4.8919 61.0177 2.98234C59.1081 1.07278 56.5182 0 53.8176 0V0ZM32.1136 59.3553C31.0619 59.3615 30.0322 59.0553 29.1547 58.4756C28.2773 57.8958 27.5918 57.0686 27.185 56.0988C26.7783 55.129 26.6686 54.0603 26.87 53.0281C27.0714 51.9959 27.5746 51.0468 28.3161 50.3009C29.0575 49.5551 30.0037 49.0462 31.0346 48.8388C32.0656 48.6313 33.135 48.7346 34.1072 49.1356C35.0794 49.5366 35.9106 50.2172 36.4955 51.0912C37.0805 51.9652 37.3927 52.9931 37.3927 54.0448C37.3907 55.4472 36.8348 56.792 35.8461 57.7866C34.8574 58.7812 33.5159 59.345 32.1136 59.3553V59.3553ZM35.9437 40.1733L28.0406 43.0792L23.5604 4.86403H40.5884L35.9437 40.1733Z" fill="#AAD1E6"/>
</svg>
