<svg width="90" height="90" viewBox="0 0 90 90" fill="none" xmlns="http://www.w3.org/2000/svg">
<circle cx="45" cy="45" r="45" fill="#526D82"/>
<path opacity="0.4" d="M20.1465 54.4053C20.1465 54.4053 20.5304 59.1038 20.6196 60.5852C20.7385 62.5722 21.5063 64.7917 22.7877 66.3327C24.5963 68.517 26.7266 69.2875 29.5705 69.2929C32.9146 69.2983 57.2318 69.2983 60.5759 69.2929C63.4199 69.2875 65.5502 68.517 67.3587 66.3327C68.6401 64.7917 69.4079 62.5722 69.5296 60.5852C69.6161 59.1038 70 54.4053 70 54.4053" stroke="#DDE6ED" stroke-width="3.75" stroke-linecap="round" stroke-linejoin="round"/>
<path d="M35.534 26.9721V25.9691C35.534 22.671 38.2049 20 41.5032 20H48.4833C51.7788 20 54.4524 22.671 54.4524 25.9691L54.4552 26.9721" stroke="#DDE6ED" stroke-width="3.75" stroke-linecap="round" stroke-linejoin="round"/>
<path d="M44.9933 57.6525V54.1543" stroke="#DDE6ED" stroke-width="3.75" stroke-linecap="round" stroke-linejoin="round"/>
<path fill-rule="evenodd" clip-rule="evenodd" d="M20 35.2433V44.6161C25.1851 48.0359 31.3975 50.4312 38.2155 51.3801C39.0319 48.4036 41.7165 46.222 44.9795 46.222C48.1911 46.222 50.9297 48.4036 51.692 51.4071C58.537 50.4582 64.7738 48.063 69.9859 44.6161V35.2433C69.9859 30.6638 66.3012 26.9763 61.7216 26.9763H28.2913C23.7118 26.9763 20 30.6638 20 35.2433Z" stroke="#DDE6ED" stroke-width="3.75" stroke-linecap="round" stroke-linejoin="round"/>
</svg>
