<svg width="90" height="90" viewBox="0 0 90 90" fill="none" xmlns="http://www.w3.org/2000/svg">
<circle cx="45" cy="45" r="45" fill="#526D82"/>
<path d="M64.5898 66.1396C64.5897 66.9438 64.2243 67.8268 63.3242 68.7598C62.417 69.7001 61.0325 70.616 59.2051 71.417C55.5542 73.0172 50.4055 74.0439 44.6406 74.0439C38.878 74.0439 33.7306 73.0172 30.0801 71.417C28.2526 70.6159 26.8673 69.7003 25.96 68.7598C25.0601 67.8269 24.6944 66.9437 24.6943 66.1396V51.2715L38.8789 60.0527C40.6124 61.1256 42.6025 61.6924 44.6406 61.6924C46.6782 61.6924 48.6731 61.1261 50.4072 60.0527L64.5898 51.2715V66.1396ZM73.0977 62.1006L73.5996 62.5488C73.9796 62.8876 74.206 63.3548 74.2061 63.8691C74.2061 64.3659 74.0004 64.8162 73.6592 65.1465L73.0625 65.7236L73.2344 66.5352L74.3174 71.6602C74.3309 71.7248 74.3142 71.7922 74.2725 71.8438C74.2311 71.8948 74.1692 71.9247 74.1025 71.9248H70.7529C70.7032 71.9248 70.6554 71.908 70.6172 71.8779L70.582 71.8438C70.5402 71.7921 70.5245 71.7248 70.5381 71.6602L70.5371 71.6592L71.6211 66.5352L71.792 65.7236L71.1963 65.1465C70.855 64.8164 70.6484 64.3661 70.6484 63.8691C70.6485 63.355 70.8749 62.8877 71.2549 62.5488L71.7568 62.1006V47.1533L73.0977 46.3232V62.1006ZM44.6406 16.5C45.297 16.5 45.9558 16.6792 46.543 17.04V17.041L74.7842 34.5225L74.7852 34.5234C75.0953 34.7155 75.2861 35.0559 75.2861 35.4248C75.2861 35.7938 75.0953 36.1351 74.7842 36.3281L46.5459 53.8086C45.9585 54.1706 45.2985 54.3516 44.6406 54.3516C43.9817 54.3515 43.3235 54.1709 42.7441 53.8115L42.7432 53.8105L14.502 36.3281H14.501C14.1899 36.1347 14 35.7934 14 35.4248C14 35.056 14.1901 34.7149 14.501 34.5225H14.502L42.7432 17.041L42.7441 17.04C43.324 16.6806 43.9821 16.5 44.6406 16.5Z" stroke="#DDE6ED" stroke-width="3"/>
</svg>
